<?xml version="1.0" encoding="UTF-8"?>
<svg id="Camada_2" data-name="Camada 2" xmlns="http://www.w3.org/2000/svg" viewBox="0 0 1363.01 203.8">
  <defs>
    <style>
      .cls-1 {
        fill: #1f4d85;
      }

      .cls-2 {
        fill: none;
        stroke: #ff646a;
        stroke-miterlimit: 10;
        stroke-width: 22.22px;
      }
    </style>
  </defs>
  <g id="prancheta_2" data-name="prancheta 2">
    <g id="Logo_2" data-name="Logo 2">
      <g id="SIMBOLO">
        <g>
          <path class="cls-2" d="m133.59,71.29c8.39-14.91,4.22-30.4-9.18-38.9h0c-4.72-2.8-9.86-4.14-14.95-4.17h-.23c-5.09.04-10.23,1.38-14.95,4.17h0c-13.4,8.5-17.57,23.99-9.18,38.9l24.25,42.13,24.24-42.13Z"/>
          <path class="cls-2" d="m238.79,71.29c8.39-14.91,4.22-30.4-9.18-38.9h0c-4.72-2.8-9.86-4.14-14.95-4.17h-.23c-5.09.04-10.23,1.38-14.95,4.17h0c-13.4,8.5-17.57,23.99-9.18,38.9l24.25,42.13,24.24-42.13Z"/>
          <path class="cls-2" d="m291.35,132.51c8.39,14.91,4.22,30.4-9.18,38.9h0c-4.72,2.8-9.86,4.14-14.95,4.17h-.23c-5.09-.04-10.23-1.38-14.95-4.17h0c-13.4-8.5-17.57-23.99-9.18-38.9l24.25-42.13,24.24,42.13Z"/>
          <path class="cls-2" d="m186.39,132.51c8.39,14.91,4.22,30.4-9.18,38.9h0c-4.72,2.8-9.86,4.14-14.95,4.17h-.23c-5.09-.04-10.23-1.38-14.95-4.17h0c-13.4-8.5-17.57-23.99-9.18-38.9l24.25-42.13,24.24,42.13Z"/>
          <path class="cls-2" d="m81.03,132.51c8.39,14.91,4.22,30.4-9.18,38.9h0c-4.72,2.8-9.86,4.14-14.95,4.17h-.23c-5.09-.04-10.23-1.38-14.95-4.17h0c-13.4-8.5-17.57-23.99-9.18-38.9l24.25-42.13,24.24,42.13Z"/>
        </g>
        <path class="cls-1" d="m214.74,6h.08c9.16.07,18.19,2.58,26.11,7.28l.29.17.29.18c4.17,2.64,9.32,6.86,13.4,12.15,7.1,9.2,12.21,20.05,12.21,20.05l19.25,33.46,24.24,42.13.05.09.05.09c6.8,12.08,8.86,25.59,5.8,38.05-3.05,12.43-11.02,23.27-22.44,30.51l-.29.18-.29.17c-7.92,4.69-16.95,7.21-26.11,7.27h-.08s-.08,0-.08,0h-.39c-9.16-.07-18.19-2.58-26.11-7.27l-.29-.17-.29-.18c-11.42-7.24-19.39-18.08-22.44-30.51-.4-1.61-2.62-1.69-3.07-1.69-.05,0-.08,0-.08,0,0,0,0,0-.01,0-.19,0-2.59.03-3,1.69-3.05,12.43-11.02,23.27-22.44,30.51l-.29.18-.29.17c-7.92,4.69-16.95,7.21-26.11,7.27h-.08s-.08,0-.08,0h-.39c-9.16-.07-18.19-2.58-26.11-7.28l-.29-.17-.29-.18c-11.42-7.24-19.39-18.08-22.44-30.51-.38-1.56-2.4-1.7-3.12-1.7-.16,0-.26,0-.26,0,0,0-.03,0-.09,0-.48,0-2.68.09-3.08,1.69-3.05,12.43-11.02,23.27-22.44,30.51l-.29.18-.29.17c-7.92,4.69-16.95,7.21-26.11,7.27h-.08s-.08,0-.08,0h-.39c-9.16-.07-18.19-2.58-26.11-7.27l-.29-.17-.29-.18c-11.42-7.24-19.39-18.08-22.44-30.51-3.06-12.46-1-25.97,5.8-38.05l.05-.09.05-.09,24.25-42.13,19.26-33.46s4.64-10.23,11.34-19.11c4.29-5.69,9.79-10.27,14.25-13.09l.29-.18.29-.17c7.92-4.69,16.95-7.21,26.11-7.27h.08s.08,0,.08,0h.39c9.16.07,18.19,2.58,26.11,7.28l.29.17.29.18c11.42,7.24,19.39,18.08,22.44,30.51.38,1.55,2.38,1.7,3.13,1.7.18,0,.28,0,.28,0,0,0,0,0,0,0,.13,0,2.57-.02,2.98-1.69,3.05-12.43,11.02-23.27,22.44-30.51l.29-.18.29-.17c7.92-4.69,16.95-7.21,26.11-7.27h.08s.08,0,.08,0h.31m0-6h-.51c-10.22.07-20.29,2.88-29.13,8.11l-.29.17-.16.1-.29.18c-10.24,6.49-17.99,15.61-22.42,26.18-4.43-10.57-12.18-19.68-22.42-26.18l-.29-.18-.16-.1-.29-.17C129.96,2.88,119.89.07,109.66,0h-.08s-.12,0-.12,0h-.43c-10.22.07-20.29,2.88-29.13,8.11l-.29.17-.16.1-.29.18c-5.91,3.75-11.68,9.05-15.82,14.55-6.47,8.58-11.05,18.18-11.88,19.96l-19.12,33.22-24.25,42.13-.06.1-.08.14c-7.55,13.41-9.82,28.48-6.4,42.42,3.42,13.94,12.32,26.07,25.05,34.15l.28.18.16.1.29.17c8.83,5.23,18.9,8.04,29.12,8.11h.07s.05,0,.05,0h.44s.08,0,.08,0c10.21-.07,20.29-2.88,29.12-8.11l.29-.17.16-.1.29-.18c10.3-6.53,18.09-15.72,22.5-26.37,4.41,10.65,12.2,19.84,22.5,26.37l.29.18.16.1.29.17c8.83,5.23,18.9,8.04,29.13,8.11h.07s.05,0,.05,0h.44s.08,0,.08,0c10.21-.07,20.29-2.88,29.12-8.11l.29-.17.15-.09.29-.18c10.15-6.44,17.86-15.44,22.3-25.89,4.45,10.45,12.16,19.46,22.3,25.89l.29.18.16.1.29.17c8.83,5.23,18.9,8.04,29.13,8.11h.07s.05,0,.05,0h.44s.08,0,.08,0c10.21-.07,20.29-2.88,29.12-8.11l.29-.17.16-.1.29-.18c12.73-8.08,21.63-20.2,25.05-34.15,3.42-13.94,1.15-29.01-6.4-42.42l-.05-.09-.07-.13-24.24-42.14-19.14-33.26c-.83-1.72-5.86-11.97-12.77-20.93-5.36-6.95-11.66-11.47-14.94-13.55l-.29-.18-.16-.1-.29-.17C235.16,2.88,225.09.07,214.87,0h-.08s-.04,0-.04,0h0Z"/>
      </g>
      <g>
        <path class="cls-1" d="m475.14,51.15v102.18h-28.41v-56.38l-19.28,56.38h-23.77l-19.42-56.81v56.81h-28.41V51.15h34.35l25.65,66.38,25.07-66.38h34.2Z"/>
        <path class="cls-1" d="m520.31,73.91v16.67h32.61v21.59h-32.61v18.41h36.96v22.76h-65.36V51.15h65.36v22.76h-36.96Z"/>
        <path class="cls-1" d="m600.66,131.59h31.74v21.74h-60.15V51.15h28.41v80.44Z"/>
        <path class="cls-1" d="m734.43,51.15v102.18h-28.41v-41.02h-34.64v41.02h-28.41V51.15h28.41v38.41h34.64v-38.41h28.41Z"/>
        <path class="cls-1" d="m772.54,147.61c-8.02-4.49-14.37-10.73-19.06-18.7-4.69-7.97-7.03-16.98-7.03-27.03s2.34-19.06,7.03-27.03c4.68-7.97,11.04-14.18,19.06-18.62,8.02-4.44,16.81-6.67,26.38-6.67s18.48,2.22,26.45,6.67c7.97,4.44,14.28,10.65,18.91,18.62,4.64,7.97,6.96,16.98,6.96,27.03s-2.32,19.06-6.96,27.03c-4.64,7.97-10.97,14.2-18.99,18.7-8.02,4.49-16.81,6.74-26.38,6.74s-18.36-2.25-26.38-6.74Zm43.55-26.74c4.2-4.73,6.3-11.06,6.3-18.99s-2.1-14.52-6.3-19.2c-4.2-4.68-9.93-7.03-17.17-7.03s-13.09,2.34-17.25,7.03c-4.16,4.69-6.23,11.09-6.23,19.2s2.08,14.38,6.23,19.06c4.15,4.69,9.9,7.03,17.25,7.03s12.97-2.37,17.17-7.1Z"/>
        <path class="cls-1" d="m914.65,153.33l-20.29-37.68h-3.04v37.68h-28.41V51.15h44.78c8.21,0,15.17,1.43,20.87,4.28,5.7,2.85,10,6.76,12.9,11.74,2.9,4.98,4.35,10.56,4.35,16.74,0,6.96-1.91,13.07-5.73,18.33-3.82,5.27-9.4,9.01-16.74,11.23l23.04,39.86h-31.74Zm-23.33-57.1h14.06c3.86,0,6.76-.92,8.7-2.75,1.93-1.83,2.9-4.49,2.9-7.97,0-3.28-.99-5.87-2.97-7.75-1.98-1.88-4.86-2.83-8.62-2.83h-14.06v21.3Z"/>
        <path class="cls-1" d="m1038.13,153.33l-20.29-37.68h-3.04v37.68h-28.41V51.15h44.78c8.21,0,15.17,1.43,20.87,4.28,5.7,2.85,10,6.76,12.9,11.74,2.9,4.98,4.35,10.56,4.35,16.74,0,6.96-1.91,13.07-5.73,18.33-3.82,5.27-9.4,9.01-16.74,11.23l23.04,39.86h-31.74Zm-23.33-57.1h14.06c3.86,0,6.76-.92,8.7-2.75,1.93-1.83,2.9-4.49,2.9-7.97,0-3.28-.99-5.87-2.97-7.75-1.98-1.88-4.86-2.83-8.62-2.83h-14.06v21.3Z"/>
        <path class="cls-1" d="m1101.74,147.61c-8.02-4.49-14.37-10.73-19.06-18.7-4.69-7.97-7.03-16.98-7.03-27.03s2.34-19.06,7.03-27.03c4.68-7.97,11.04-14.18,19.06-18.62,8.02-4.44,16.81-6.67,26.38-6.67s18.48,2.22,26.45,6.67c7.97,4.44,14.28,10.65,18.91,18.62,4.64,7.97,6.96,16.98,6.96,27.03s-2.32,19.06-6.96,27.03c-4.64,7.97-10.97,14.2-18.99,18.7-8.02,4.49-16.81,6.74-26.38,6.74s-18.36-2.25-26.38-6.74Zm43.55-26.74c4.2-4.73,6.3-11.06,6.3-18.99s-2.1-14.52-6.3-19.2c-4.2-4.68-9.93-7.03-17.17-7.03s-13.09,2.34-17.25,7.03c-4.16,4.69-6.23,11.09-6.23,19.2s2.08,14.38,6.23,19.06c4.15,4.69,9.9,7.03,17.25,7.03s12.97-2.37,17.17-7.1Z"/>
        <path class="cls-1" d="m1265.64,51.15v22.61h-27.25v79.57h-28.41v-79.57h-26.96v-22.61h82.61Z"/>
        <path class="cls-1" d="m1327.5,136.66h-36.23l-5.51,16.67h-29.86l37.25-102.18h32.75l37.1,102.18h-30l-5.51-16.67Zm-7.1-21.74l-11.02-33.04-10.87,33.04h21.88Z"/>
      </g>
    </g>
  </g>
</svg>